<?xml version="1.0" encoding="UTF-8" standalone="no"?><svg xmlns="http://www.w3.org/2000/svg" xmlns:xlink="http://www.w3.org/1999/xlink" contentScriptType="application/ecmascript" contentStyleType="text/css" height="734px" preserveAspectRatio="none" style="width:836px;height:734px;" version="1.1" viewBox="0 0 836 734" width="836px" zoomAndPan="magnify"><defs/><g><!--MD5=[fbc87193dbaf4d95561dea2c320d4a47]
cluster E1--><polygon fill="#98FB98" points="652,419,761,419,768,441.2969,814,441.2969,814,494,652,494,652,419" style="stroke: #000000; stroke-width: 1.5;"/><line style="stroke: #000000; stroke-width: 1.5;" x1="652" x2="768" y1="441.2969" y2="441.2969"/><text fill="#000000" font-family="sans-serif" font-size="14" font-style="italic" font-weight="bold" lengthAdjust="spacingAndGlyphs" textLength="103" x="656" y="433.9951">Environment</text><!--MD5=[e4f7fae6ed58524ba242bb0b0d3be6b7]
cluster E2--><polygon fill="#98FB98" points="37,6,146,6,153,28.2969,183,28.2969,183,81,37,81,37,6" style="stroke: #000000; stroke-width: 1.5;"/><line style="stroke: #000000; stroke-width: 1.5;" x1="37" x2="153" y1="28.2969" y2="28.2969"/><text fill="#000000" font-family="sans-serif" font-size="14" font-style="italic" font-weight="bold" lengthAdjust="spacingAndGlyphs" textLength="103" x="41" y="20.9951">Environment</text><!--MD5=[68e6f66fb88921cf0ce1150788751dd4]
cluster RaspberryPi--><polygon fill="#FFA07A" points="16,130,118,130,125,152.2969,628,152.2969,628,722,16,722,16,130" style="stroke: #000000; stroke-width: 1.5;"/><line style="stroke: #000000; stroke-width: 1.5;" x1="16" x2="125" y1="152.2969" y2="152.2969"/><text fill="#000000" font-family="sans-serif" font-size="14" font-style="italic" font-weight="bold" lengthAdjust="spacingAndGlyphs" textLength="96" x="20" y="144.9951">RaspberryPi</text><!--MD5=[161529c905c57da6c5c3c392fbf6cca7]
cluster Attached Hardware--><polygon fill="#FFF5EE" points="434,419,594,419,601,441.2969,604,441.2969,604,494,434,494,434,419" style="stroke: #000000; stroke-width: 1.5;"/><line style="stroke: #000000; stroke-width: 1.5;" x1="434" x2="601" y1="441.2969" y2="441.2969"/><text fill="#000000" font-family="sans-serif" font-size="14" font-style="italic" font-weight="bold" lengthAdjust="spacingAndGlyphs" textLength="154" x="438" y="433.9951">Attached Hardware</text><!--MD5=[42591781c74864aa6bd8b9830e23a81c]
cluster Docker--><polygon fill="#87CEFA" points="204,295,266,295,273,317.2969,410,317.2969,410,698,204,698,204,295" style="stroke: #000000; stroke-width: 1.5;"/><line style="stroke: #000000; stroke-width: 1.5;" x1="204" x2="273" y1="317.2969" y2="317.2969"/><text fill="#000000" font-family="sans-serif" font-size="14" font-style="italic" font-weight="bold" lengthAdjust="spacingAndGlyphs" textLength="56" x="208" y="309.9951">Docker</text><!--MD5=[fecebf0184799789897c7587c6453b83]
cluster Crontab Scripts--><polygon fill="#FFFFFF" points="40,173,169,173,176,195.2969,180,195.2969,180,370,40,370,40,173" style="stroke: #000000; stroke-width: 1.5;"/><line style="stroke: #000000; stroke-width: 1.5;" x1="40" x2="176" y1="195.2969" y2="195.2969"/><text fill="#000000" font-family="sans-serif" font-size="14" font-style="italic" font-weight="bold" lengthAdjust="spacingAndGlyphs" textLength="123" x="44" y="187.9951">Crontab Scripts</text><!--MD5=[acf059b703978950c3503f3e640c32cd]
class sensorLacrosse--><rect codeLine="24" fill="#FFFFFF" height="23.9688" id="sensorLacrosse" style="stroke: #000000; stroke-width: 1.5;" width="130" x="668" y="454"/><text fill="#000000" font-family="sans-serif" font-size="12" lengthAdjust="spacingAndGlyphs" textLength="124" x="671" y="470.1387">La Crosse Sensor(s)</text><!--MD5=[22502c3db44c14b28482b7b4e23d3bae]
class sensorMiflora--><rect codeLine="28" fill="#FFFFFF" height="23.9688" id="sensorMiflora" style="stroke: #000000; stroke-width: 1.5;" width="113" x="53.5" y="41"/><text fill="#000000" font-family="sans-serif" font-size="12" lengthAdjust="spacingAndGlyphs" textLength="107" x="56.5" y="57.1387">MiFlora Sensor(s)</text><!--MD5=[00e09975e8c15c689e98168c296211fd]
class jeelink--><rect codeLine="33" fill="#FFFFFF" height="23.9688" id="jeelink" style="stroke: #000000; stroke-width: 1.5;" width="49" x="495.5" y="454"/><text fill="#000000" font-family="sans-serif" font-size="12" lengthAdjust="spacingAndGlyphs" textLength="43" x="498.5" y="470.1387">JeeLink</text><!--MD5=[5ea93f34c9db0183587b445636901c88]
class nodered--><rect codeLine="37" fill="#FFFFFF" height="23.9688" id="nodered" style="stroke: #000000; stroke-width: 1.5;" width="58" x="299" y="454"/><text fill="#000000" font-family="sans-serif" font-size="12" lengthAdjust="spacingAndGlyphs" textLength="52" x="302" y="470.1387">nodered</text><!--MD5=[7c0982c1395781ced04ca00a36c25145]
class grafana--><rect codeLine="38" fill="#FFFFFF" height="23.9688" id="grafana" style="stroke: #000000; stroke-width: 1.5;" width="51" x="229.5" y="658"/><text fill="#000000" font-family="sans-serif" font-size="12" lengthAdjust="spacingAndGlyphs" textLength="45" x="232.5" y="674.1387">grafana</text><!--MD5=[ade9db4f15f152926b2e1fe10e395b07]
class influxdb--><rect codeLine="39" fill="#FFFFFF" height="23.9688" id="influxdb" style="stroke: #000000; stroke-width: 1.5;" width="53" x="228.5" y="557"/><text fill="#000000" font-family="sans-serif" font-size="12" lengthAdjust="spacingAndGlyphs" textLength="47" x="231.5" y="573.1387">influxdb</text><!--MD5=[c24edbdbbc0750b8dddfd0ea1ca3e084]
class mosquitto--><rect codeLine="40" fill="#FFFFFF" height="23.9688" id="mosquitto" style="stroke: #000000; stroke-width: 1.5;" width="66" x="320" y="330"/><text fill="#000000" font-family="sans-serif" font-size="12" lengthAdjust="spacingAndGlyphs" textLength="60" x="323" y="346.1387">mosquitto</text><!--MD5=[8ec133213a10b86d0addb07a2405c8b5]
class scriptRaspiHealth--><rect codeLine="48" fill="#FFFFFF" height="23.9688" id="scriptRaspiHealth" style="stroke: #000000; stroke-width: 1.5;" width="95" x="56.5" y="330"/><text fill="#000000" font-family="sans-serif" font-size="12" lengthAdjust="spacingAndGlyphs" textLength="89" x="59.5" y="346.1387">raspi-health.py</text><!--MD5=[88a7b43ba4dabfe1670a465842720d4b]
class scriptMiflora--><rect codeLine="49" fill="#FFFFFF" height="23.9688" id="scriptMiflora" style="stroke: #000000; stroke-width: 1.5;" width="108" x="56" y="208"/><text fill="#000000" font-family="sans-serif" font-size="12" lengthAdjust="spacingAndGlyphs" textLength="102" x="59" y="224.1387">miflora/gather.py</text><!--MD5=[434968027c3affb00ae0d9920bf82087]
link mosquitto to nodered--><path codeLine="42" d="M350.693,354.259 C346.247,375.957 336.476,423.636 331.327,448.766 " fill="none" id="mosquitto-to-nodered" style="stroke: #A80036; stroke-width: 1.0;"/><polygon fill="#A80036" points="330.302,453.768,336.028,445.7547,331.3062,448.8699,328.1911,444.148,330.302,453.768" style="stroke: #A80036; stroke-width: 1.0;"/><text fill="#000000" font-family="sans-serif" font-size="13" lengthAdjust="spacingAndGlyphs" textLength="64" x="344" y="399.0669">push data</text><!--MD5=[c44c863058bcedc2dbf3bee2aafbf085]
link nodered to influxdb--><path codeLine="43" d="M319.909,478.195 C306.809,496.32 280.931,532.123 266.113,552.625 " fill="none" id="nodered-to-influxdb" style="stroke: #A80036; stroke-width: 1.0;"/><polygon fill="#A80036" points="263.127,556.755,271.6403,551.8029,266.0554,552.7023,265.1561,547.1174,263.127,556.755" style="stroke: #A80036; stroke-width: 1.0;"/><text fill="#000000" font-family="sans-serif" font-size="13" lengthAdjust="spacingAndGlyphs" textLength="137" x="296" y="523.0669">store timeseries data</text><!--MD5=[8ef4b411fbac159fefa1e848fedf73d6]
reverse link influxdb to grafana--><path codeLine="44" d="M255,586.423 C255,606.609 255,640.3276 255,657.7759 " fill="none" id="influxdb-backto-grafana" style="stroke: #A80036; stroke-width: 1.0;"/><polygon fill="#A80036" points="255,581.357,251,590.357,255,586.357,259,590.357,255,581.357" style="stroke: #A80036; stroke-width: 1.0;"/><text fill="#000000" font-family="sans-serif" font-size="13" lengthAdjust="spacingAndGlyphs" textLength="125" x="256" y="624.0669">get timeseries data</text><!--MD5=[304a8a8359d80e784be4655cb0176650]
link scriptMiflora to scriptRaspiHealth--><!--MD5=[60c07c56880ca766bc0563fe4c9abd1b]
link scriptRaspiHealth to mosquitto--><path codeLine="54" d="M151.715,342 C199.073,342 270.751,342 314.57,342 " fill="none" id="scriptRaspiHealth-to-mosquitto" style="stroke: #A80036; stroke-width: 1.0;"/><polygon fill="#A80036" points="319.772,342,310.772,338,314.772,342,310.772,346,319.772,342" style="stroke: #A80036; stroke-width: 1.0;"/><text fill="#000000" font-family="sans-serif" font-size="13" lengthAdjust="spacingAndGlyphs" textLength="132" x="169.75" y="335.0669">send RPi health data</text><!--MD5=[5c4d37f106b8f7b91c6dc67a3b93e961]
reverse link jeelink to sensorLacrosse--><path codeLine="57" d="M549.954,466 C580.413,466 628.585,466 667.866,466 " fill="none" id="jeelink-backto-sensorLacrosse" style="stroke: #A80036; stroke-width: 1.0;"/><polygon fill="#A80036" points="544.851,466,553.851,470,549.851,466,553.851,462,544.851,466" style="stroke: #A80036; stroke-width: 1.0;"/><text fill="#000000" font-family="sans-serif" font-size="13" lengthAdjust="spacingAndGlyphs" textLength="64" x="574.25" y="459.0669">send data</text><!--MD5=[e295ffcb60317b66497d810fe99c3823]
link nodered to jeelink--><path codeLine="58" d="M357.161,466 C393.156,466 454.041,466 490.288,466 " fill="none" id="nodered-to-jeelink" style="stroke: #A80036; stroke-width: 1.0;"/><polygon fill="#A80036" points="495.451,466,486.451,462,490.451,466,486.451,470,495.451,466" style="stroke: #A80036; stroke-width: 1.0;"/><text fill="#000000" font-family="sans-serif" font-size="13" lengthAdjust="spacingAndGlyphs" textLength="80" x="386.25" y="459.0669">receive data</text><!--MD5=[03b7b1211729a2ac03234acd6187a346]
reverse link sensorMiflora to scriptMiflora--><path codeLine="59" d="M110,70.47 C110,104.042 110,179.605 110,207.966 " fill="none" id="sensorMiflora-backto-scriptMiflora" style="stroke: #A80036; stroke-width: 1.0;"/><polygon fill="#A80036" points="110,65.082,106,74.082,110,70.082,114,74.082,110,65.082" style="stroke: #A80036; stroke-width: 1.0;"/><text fill="#000000" font-family="sans-serif" font-size="13" lengthAdjust="spacingAndGlyphs" textLength="55" x="111" y="110.0669">poll data</text><!--MD5=[4bea3f0d5596596e2b59456a6b84ea2b]
link scriptMiflora to mosquitto--><path codeLine="60" d="M132.425,232.074 C177.271,254.22 277.837,303.882 326.123,327.727 " fill="none" id="scriptMiflora-to-mosquitto" style="stroke: #A80036; stroke-width: 1.0;"/><polygon fill="#A80036" points="330.629,329.953,324.3302,322.3817,326.1458,327.7392,320.7882,329.5548,330.629,329.953" style="stroke: #A80036; stroke-width: 1.0;"/><text fill="#000000" font-family="sans-serif" font-size="13" lengthAdjust="spacingAndGlyphs" textLength="113" x="226" y="275.0669">send miflora data</text><!--MD5=[1ee80c6daf661948d6a85927dc491a0e]
@startuml
skinparam shadowing false

skinparam package {
  BackgroundColor white
  BorderColor black
  FontStyle italic bold

  BackgroundColor<<Environment>> PaleGreen
  BackgroundColor<<RaspberryPi>> LightSalmon
  BackgroundColor<<Hardware>> SeaShell
  BackgroundColor<<Docker>> LightSkyBlue
}

skinparam class {
  BackgroundColor none
  BorderColor Black
}

hide members
hide circle
hide stereotype

package "Environment" as E1 <<Environment>> {
  class "La Crosse Sensor(s)" as sensorLacrosse
}

package "Environment" as E2 <<Environment>> {
  class "MiFlora Sensor(s)" as sensorMiflora
}

package RaspberryPi <<RaspberryPi>> {
  package "Attached Hardware" <<Hardware>> {
    class "JeeLink" as jeelink
  }

  package Docker <<Docker>> {
    class nodered
    class grafana
    class influxdb
    class mosquitto

    mosquitto -down-> nodered: push data
    nodered -down-> influxdb: store timeseries data
    grafana -up-> influxdb: get timeseries data
  }

  package "Crontab Scripts" {
    class "raspi-health.py" as scriptRaspiHealth
    class "miflora/gather.py" as scriptMiflora

    scriptMiflora-down[hidden]-> scriptRaspiHealth
  }

  scriptRaspiHealth -right-> mosquitto: send RPi health data
}

sensorLacrosse -left-> jeelink: send data
jeelink <-right- nodered: receive data
sensorMiflora <-up- scriptMiflora: poll data
scriptMiflora -right-> mosquitto: send miflora data
@enduml

PlantUML version 1.2020.18beta4(Unknown compile time)
(GPL source distribution)
Java Runtime: Java(TM) SE Runtime Environment
JVM: Java HotSpot(TM) 64-Bit Server VM
Default Encoding: UTF-8
Language: en
Country: US
--></g></svg>