<?xml version="1.0" encoding="UTF-8" standalone="no"?><svg xmlns="http://www.w3.org/2000/svg" xmlns:xlink="http://www.w3.org/1999/xlink" contentScriptType="application/ecmascript" contentStyleType="text/css" height="488px" preserveAspectRatio="none" style="width:850px;height:488px;" version="1.1" viewBox="0 0 850 488" width="850px" zoomAndPan="magnify"><defs/><g><!--MD5=[85f6e7297d1ad81d8c1382e17d44cf2c]
cluster Environment--><polygon fill="#98FB98" points="666,173,775,173,782,195.2969,828,195.2969,828,248,666,248,666,173" style="stroke: #000000; stroke-width: 1.5;"/><line style="stroke: #000000; stroke-width: 1.5;" x1="666" x2="782" y1="195.2969" y2="195.2969"/><text fill="#000000" font-family="sans-serif" font-size="14" font-style="italic" font-weight="bold" lengthAdjust="spacingAndGlyphs" textLength="103" x="670" y="187.9951">Environment</text><!--MD5=[68e6f66fb88921cf0ce1150788751dd4]
cluster RaspberryPi--><polygon fill="#FFA07A" points="16,6,118,6,125,28.2969,642,28.2969,642,476,16,476,16,6" style="stroke: #000000; stroke-width: 1.5;"/><line style="stroke: #000000; stroke-width: 1.5;" x1="16" x2="125" y1="28.2969" y2="28.2969"/><text fill="#000000" font-family="sans-serif" font-size="14" font-style="italic" font-weight="bold" lengthAdjust="spacingAndGlyphs" textLength="96" x="20" y="20.9951">RaspberryPi</text><!--MD5=[161529c905c57da6c5c3c392fbf6cca7]
cluster Attached Hardware--><polygon fill="#FFF5EE" points="448,173,608,173,615,195.2969,618,195.2969,618,248,448,248,448,173" style="stroke: #000000; stroke-width: 1.5;"/><line style="stroke: #000000; stroke-width: 1.5;" x1="448" x2="615" y1="195.2969" y2="195.2969"/><text fill="#000000" font-family="sans-serif" font-size="14" font-style="italic" font-weight="bold" lengthAdjust="spacingAndGlyphs" textLength="154" x="452" y="187.9951">Attached Hardware</text><!--MD5=[42591781c74864aa6bd8b9830e23a81c]
cluster Docker--><polygon fill="#87CEFA" points="218,49,280,49,287,71.2969,424,71.2969,424,452,218,452,218,49" style="stroke: #000000; stroke-width: 1.5;"/><line style="stroke: #000000; stroke-width: 1.5;" x1="218" x2="287" y1="71.2969" y2="71.2969"/><text fill="#000000" font-family="sans-serif" font-size="14" font-style="italic" font-weight="bold" lengthAdjust="spacingAndGlyphs" textLength="56" x="222" y="63.9951">Docker</text><!--MD5=[fecebf0184799789897c7587c6453b83]
cluster Crontab Scripts--><polygon fill="#FFFFFF" points="40,49,169,49,176,71.2969,190,71.2969,190,124,40,124,40,49" style="stroke: #000000; stroke-width: 1.5;"/><line style="stroke: #000000; stroke-width: 1.5;" x1="40" x2="176" y1="71.2969" y2="71.2969"/><text fill="#000000" font-family="sans-serif" font-size="14" font-style="italic" font-weight="bold" lengthAdjust="spacingAndGlyphs" textLength="123" x="44" y="63.9951">Crontab Scripts</text><!--MD5=[3903271015920207ac1dbb46932d05ff]
class lacrosse--><rect codeLine="24" fill="#FFFFFF" height="23.9688" id="lacrosse" style="stroke: #000000; stroke-width: 1.5;" width="130" x="682" y="208"/><text fill="#000000" font-family="sans-serif" font-size="12" lengthAdjust="spacingAndGlyphs" textLength="124" x="685" y="224.1387">La Crosse Sensor(s)</text><!--MD5=[00e09975e8c15c689e98168c296211fd]
class jeelink--><rect codeLine="29" fill="#FFFFFF" height="23.9688" id="jeelink" style="stroke: #000000; stroke-width: 1.5;" width="49" x="509.5" y="208"/><text fill="#000000" font-family="sans-serif" font-size="12" lengthAdjust="spacingAndGlyphs" textLength="43" x="512.5" y="224.1387">JeeLink</text><!--MD5=[5ea93f34c9db0183587b445636901c88]
class nodered--><rect codeLine="33" fill="#FFFFFF" height="23.9688" id="nodered" style="stroke: #000000; stroke-width: 1.5;" width="58" x="313" y="208"/><text fill="#000000" font-family="sans-serif" font-size="12" lengthAdjust="spacingAndGlyphs" textLength="52" x="316" y="224.1387">nodered</text><!--MD5=[7c0982c1395781ced04ca00a36c25145]
class grafana--><rect codeLine="34" fill="#FFFFFF" height="23.9688" id="grafana" style="stroke: #000000; stroke-width: 1.5;" width="51" x="243.5" y="412"/><text fill="#000000" font-family="sans-serif" font-size="12" lengthAdjust="spacingAndGlyphs" textLength="45" x="246.5" y="428.1387">grafana</text><!--MD5=[ade9db4f15f152926b2e1fe10e395b07]
class influxdb--><rect codeLine="35" fill="#FFFFFF" height="23.9688" id="influxdb" style="stroke: #000000; stroke-width: 1.5;" width="53" x="242.5" y="311"/><text fill="#000000" font-family="sans-serif" font-size="12" lengthAdjust="spacingAndGlyphs" textLength="47" x="245.5" y="327.1387">influxdb</text><!--MD5=[c24edbdbbc0750b8dddfd0ea1ca3e084]
class mosquitto--><rect codeLine="36" fill="#FFFFFF" height="23.9688" id="mosquitto" style="stroke: #000000; stroke-width: 1.5;" width="66" x="342" y="84"/><text fill="#000000" font-family="sans-serif" font-size="12" lengthAdjust="spacingAndGlyphs" textLength="60" x="345" y="100.1387">mosquitto</text><!--MD5=[083f1eb0b2cc2ea415363e36ffc40f6e]
class pihealth--><rect codeLine="44" fill="#FFFFFF" height="23.9688" id="pihealth" style="stroke: #000000; stroke-width: 1.5;" width="117" x="56.5" y="84"/><text fill="#000000" font-family="sans-serif" font-size="12" lengthAdjust="spacingAndGlyphs" textLength="111" x="59.5" y="100.1387">nodered-health.py</text><!--MD5=[434968027c3affb00ae0d9920bf82087]
link mosquitto to nodered--><path codeLine="38" d="M371.955,108.259 C366.085,129.957 353.189,177.636 346.391,202.766 " fill="none" id="mosquitto-to-nodered" style="stroke: #A80036; stroke-width: 1.0;"/><polygon fill="#A80036" points="345.038,207.768,351.2492,200.1247,346.3436,202.9415,343.5268,198.0358,345.038,207.768" style="stroke: #A80036; stroke-width: 1.0;"/><text fill="#000000" font-family="sans-serif" font-size="13" lengthAdjust="spacingAndGlyphs" textLength="64" x="363" y="153.0669">push data</text><!--MD5=[c44c863058bcedc2dbf3bee2aafbf085]
link nodered to influxdb--><path codeLine="39" d="M333.909,232.195 C320.809,250.32 294.931,286.123 280.113,306.625 " fill="none" id="nodered-to-influxdb" style="stroke: #A80036; stroke-width: 1.0;"/><polygon fill="#A80036" points="277.127,310.755,285.6403,305.8029,280.0554,306.7023,279.1561,301.1174,277.127,310.755" style="stroke: #A80036; stroke-width: 1.0;"/><text fill="#000000" font-family="sans-serif" font-size="13" lengthAdjust="spacingAndGlyphs" textLength="137" x="310" y="277.0669">store timeseries data</text><!--MD5=[8ef4b411fbac159fefa1e848fedf73d6]
reverse link influxdb to grafana--><path codeLine="40" d="M269,340.423 C269,360.609 269,394.3276 269,411.7759 " fill="none" id="influxdb-backto-grafana" style="stroke: #A80036; stroke-width: 1.0;"/><polygon fill="#A80036" points="269,335.357,265,344.357,269,340.357,273,344.357,269,335.357" style="stroke: #A80036; stroke-width: 1.0;"/><text fill="#000000" font-family="sans-serif" font-size="13" lengthAdjust="spacingAndGlyphs" textLength="125" x="270" y="378.0669">get timeseries data</text><!--MD5=[5bd1f2e6f66b2af317b3c497f7142894]
link pihealth to mosquitto--><path codeLine="47" d="M173.673,96 C223.615,96 293.897,96 336.844,96 " fill="none" id="pihealth-to-mosquitto" style="stroke: #A80036; stroke-width: 1.0;"/><polygon fill="#A80036" points="341.942,96,332.942,92,336.942,96,332.942,100,341.942,96" style="stroke: #A80036; stroke-width: 1.0;"/><text fill="#000000" font-family="sans-serif" font-size="13" lengthAdjust="spacingAndGlyphs" textLength="132" x="191.75" y="89.0669">send RPi health data</text><!--MD5=[0637ca8ab9871add5d6737092398cbbe]
reverse link jeelink to lacrosse--><path codeLine="50" d="M563.954,220 C594.413,220 642.585,220 681.866,220 " fill="none" id="jeelink-backto-lacrosse" style="stroke: #A80036; stroke-width: 1.0;"/><polygon fill="#A80036" points="558.851,220,567.851,224,563.851,220,567.851,216,558.851,220" style="stroke: #A80036; stroke-width: 1.0;"/><text fill="#000000" font-family="sans-serif" font-size="13" lengthAdjust="spacingAndGlyphs" textLength="64" x="588.25" y="213.0669">send data</text><!--MD5=[e295ffcb60317b66497d810fe99c3823]
link nodered to jeelink--><path codeLine="51" d="M371.161,220 C407.156,220 468.041,220 504.288,220 " fill="none" id="nodered-to-jeelink" style="stroke: #A80036; stroke-width: 1.0;"/><polygon fill="#A80036" points="509.451,220,500.451,216,504.451,220,500.451,224,509.451,220" style="stroke: #A80036; stroke-width: 1.0;"/><text fill="#000000" font-family="sans-serif" font-size="13" lengthAdjust="spacingAndGlyphs" textLength="80" x="400.25" y="213.0669">receive data</text><!--MD5=[916ea291472de3fd503795d31a53b3f5]
@startuml
skinparam shadowing false

skinparam package {
  BackgroundColor white
  BorderColor black
  FontStyle italic bold

  BackgroundColor<<Environment>> PaleGreen
  BackgroundColor<<RaspberryPi>> LightSalmon
  BackgroundColor<<Hardware>> SeaShell
  BackgroundColor<<Docker>> LightSkyBlue
}

skinparam class {
  BackgroundColor none
  BorderColor Black
}

hide members
hide circle
hide stereotype

package Environment <<Environment>> {
  class "La Crosse Sensor(s)" as lacrosse
}

package RaspberryPi <<RaspberryPi>> {
  package "Attached Hardware" <<Hardware>> {
    class "JeeLink" as jeelink
  }

  package Docker <<Docker>> {
    class nodered
    class grafana
    class influxdb
    class mosquitto

    mosquitto -down-> nodered: push data
    nodered -down-> influxdb: store timeseries data
    grafana -up-> influxdb: get timeseries data
  }

  package "Crontab Scripts" {
    class "nodered-health.py" as pihealth
  }

  pihealth -right-> mosquitto: send RPi health data
}

lacrosse -left-> jeelink: send data
jeelink <-right- nodered: receive data
@enduml

PlantUML version 1.2020.17(Sat Sep 19 12:30:11 UTC 2020)
(GPL source distribution)
Java Runtime: Java(TM) SE Runtime Environment
JVM: Java HotSpot(TM) 64-Bit Server VM
Default Encoding: UTF-8
Language: en
Country: US
--></g></svg>