<?xml version="1.0" encoding="UTF-8" standalone="no"?><svg xmlns="http://www.w3.org/2000/svg" xmlns:xlink="http://www.w3.org/1999/xlink" contentStyleType="text/css" height="859px" preserveAspectRatio="none" style="width:914px;height:859px;background:#FFFFFF;" version="1.1" viewBox="0 0 914 859" width="914px" zoomAndPan="magnify"><defs/><g><!--MD5=[fbc87193dbaf4d95561dea2c320d4a47]
cluster E1--><g id="cluster_E1"><path d="M483.5,482 L586.5,482 A3.75,3.75 0 0 1 589,484.5 L596,504.2969 L654.5,504.2969 A2.5,2.5 0 0 1 657,506.7969 L657,575.5 A2.5,2.5 0 0 1 654.5,578 L483.5,578 A2.5,2.5 0 0 1 481,575.5 L481,484.5 A2.5,2.5 0 0 1 483.5,482 " fill="#98FB98" style="stroke:#000000;stroke-width:1.5;"/><line style="stroke:#000000;stroke-width:1.5;" x1="481" x2="596" y1="504.2969" y2="504.2969"/><text fill="#000000" font-family="sans-serif" font-size="14" font-weight="bold" lengthAdjust="spacing" textLength="102" x="485" y="496.9951">Environment</text></g><!--MD5=[e4f7fae6ed58524ba242bb0b0d3be6b7]
cluster E2--><g id="cluster_E2"><path d="M486.5,194 L589.5,194 A3.75,3.75 0 0 1 592,196.5 L599,216.2969 L641.5,216.2969 A2.5,2.5 0 0 1 644,218.7969 L644,287.5 A2.5,2.5 0 0 1 641.5,290 L486.5,290 A2.5,2.5 0 0 1 484,287.5 L484,196.5 A2.5,2.5 0 0 1 486.5,194 " fill="#98FB98" style="stroke:#000000;stroke-width:1.5;"/><line style="stroke:#000000;stroke-width:1.5;" x1="484" x2="599" y1="216.2969" y2="216.2969"/><text fill="#000000" font-family="sans-serif" font-size="14" font-weight="bold" lengthAdjust="spacing" textLength="102" x="488" y="208.9951">Environment</text></g><!--MD5=[d5e69f78d87373223dbae638b30a9c99]
cluster E3--><g id="cluster_E3"><path d="M683.5,482 L786.5,482 A3.75,3.75 0 0 1 789,484.5 L796,504.2969 L904.5,504.2969 A2.5,2.5 0 0 1 907,506.7969 L907,680.5 A2.5,2.5 0 0 1 904.5,683 L683.5,683 A2.5,2.5 0 0 1 681,680.5 L681,484.5 A2.5,2.5 0 0 1 683.5,482 " fill="#98FB98" style="stroke:#000000;stroke-width:1.5;"/><line style="stroke:#000000;stroke-width:1.5;" x1="681" x2="796" y1="504.2969" y2="504.2969"/><text fill="#000000" font-family="sans-serif" font-size="14" font-weight="bold" lengthAdjust="spacing" textLength="102" x="685" y="496.9951">Environment</text></g><!--MD5=[f6df4d0ebaf0b5dfb2ced0ae5af7c670]
cluster E4--><g id="cluster_E4"><path d="M247.5,6 L350.5,6 A3.75,3.75 0 0 1 353,8.5 L360,28.2969 L402.5,28.2969 A2.5,2.5 0 0 1 405,30.7969 L405,99.5 A2.5,2.5 0 0 1 402.5,102 L247.5,102 A2.5,2.5 0 0 1 245,99.5 L245,8.5 A2.5,2.5 0 0 1 247.5,6 " fill="#98FB98" style="stroke:#000000;stroke-width:1.5;"/><line style="stroke:#000000;stroke-width:1.5;" x1="245" x2="360" y1="28.2969" y2="28.2969"/><text fill="#000000" font-family="sans-serif" font-size="14" font-weight="bold" lengthAdjust="spacing" textLength="102" x="249" y="20.9951">Environment</text></g><!--MD5=[68e6f66fb88921cf0ce1150788751dd4]
cluster RaspberryPi--><g id="cluster_RaspberryPi"><path d="M8.5,151 L106.5,151 A3.75,3.75 0 0 1 109,153.5 L116,173.2969 L454.5,173.2969 A2.5,2.5 0 0 1 457,175.7969 L457,849.5 A2.5,2.5 0 0 1 454.5,852 L8.5,852 A2.5,2.5 0 0 1 6,849.5 L6,153.5 A2.5,2.5 0 0 1 8.5,151 " fill="#FFA07A" style="stroke:#000000;stroke-width:1.5;"/><line style="stroke:#000000;stroke-width:1.5;" x1="6" x2="116" y1="173.2969" y2="173.2969"/><text fill="#000000" font-family="sans-serif" font-size="14" font-weight="bold" lengthAdjust="spacing" textLength="97" x="10" y="165.9951">RaspberryPi</text></g><!--MD5=[161529c905c57da6c5c3c392fbf6cca7]
cluster Attached Hardware--><g id="cluster_Attached Hardware"><path d="M262.5,482 L420.5,482 A3.75,3.75 0 0 1 423,484.5 L430,504.2969 L430.5,504.2969 A2.5,2.5 0 0 1 433,506.7969 L433,575.5 A2.5,2.5 0 0 1 430.5,578 L262.5,578 A2.5,2.5 0 0 1 260,575.5 L260,484.5 A2.5,2.5 0 0 1 262.5,482 " fill="#FFF5EE" style="stroke:#000000;stroke-width:1.5;"/><line style="stroke:#000000;stroke-width:1.5;" x1="260" x2="430" y1="504.2969" y2="504.2969"/><text fill="#000000" font-family="sans-serif" font-size="14" font-weight="bold" lengthAdjust="spacing" textLength="157" x="264" y="496.9951">Attached Hardware</text></g><!--MD5=[42591781c74864aa6bd8b9830e23a81c]
cluster Docker--><g id="cluster_Docker"><path d="M32.5,339 L88.5,339 A3.75,3.75 0 0 1 91,341.5 L98,361.2969 L233.5,361.2969 A2.5,2.5 0 0 1 236,363.7969 L236,825.5 A2.5,2.5 0 0 1 233.5,828 L32.5,828 A2.5,2.5 0 0 1 30,825.5 L30,341.5 A2.5,2.5 0 0 1 32.5,339 " fill="#87CEFA" style="stroke:#000000;stroke-width:1.5;"/><line style="stroke:#000000;stroke-width:1.5;" x1="30" x2="98" y1="361.2969" y2="361.2969"/><text fill="#000000" font-family="sans-serif" font-size="14" font-weight="bold" lengthAdjust="spacing" textLength="55" x="34" y="353.9951">Docker</text></g><!--MD5=[fecebf0184799789897c7587c6453b83]
cluster Crontab Scripts--><g id="cluster_Crontab Scripts"><path d="M76.5,194 L205.5,194 A3.75,3.75 0 0 1 208,196.5 L215,216.2969 L422.5,216.2969 A2.5,2.5 0 0 1 425,218.7969 L425,287.5 A2.5,2.5 0 0 1 422.5,290 L76.5,290 A2.5,2.5 0 0 1 74,287.5 L74,196.5 A2.5,2.5 0 0 1 76.5,194 " fill="#FFFFFF" style="stroke:#000000;stroke-width:1.5;"/><line style="stroke:#000000;stroke-width:1.5;" x1="74" x2="215" y1="216.2969" y2="216.2969"/><text fill="#000000" font-family="sans-serif" font-size="14" font-weight="bold" lengthAdjust="spacing" textLength="128" x="78" y="208.9951">Crontab Scripts</text></g><!--MD5=[31d6b3a0d432f5ada5a3a8c5ac84e56c]
cluster Ex--><g id="cluster_Ex"><path d="M483.5,732 L551.5,732 A3.75,3.75 0 0 1 554,734.5 L561,754.2969 L596.5,754.2969 A2.5,2.5 0 0 1 599,756.7969 L599,825.5 A2.5,2.5 0 0 1 596.5,828 L483.5,828 A2.5,2.5 0 0 1 481,825.5 L481,734.5 A2.5,2.5 0 0 1 483.5,732 " fill="#FFFFFF" style="stroke:#000000;stroke-width:1.5;"/><line style="stroke:#000000;stroke-width:1.5;" x1="481" x2="561" y1="754.2969" y2="754.2969"/><text fill="#000000" font-family="sans-serif" font-size="14" font-weight="bold" lengthAdjust="spacing" textLength="67" x="485" y="746.9951">External</text></g><!--MD5=[acf059b703978950c3503f3e640c32cd]
class sensorLacrosse--><g id="elem_sensorLacrosse"><rect codeLine="19" fill="#F1F1F1" height="26.2969" id="sensorLacrosse" rx="2.5" ry="2.5" style="stroke:#181818;stroke-width:0.5;" width="144" x="497" y="536"/><text fill="#000000" font-family="sans-serif" font-size="14" lengthAdjust="spacing" textLength="138" x="500" y="553.9951">La Crosse Sensor(s)</text></g><!--MD5=[22502c3db44c14b28482b7b4e23d3bae]
class sensorMiflora--><g id="elem_sensorMiflora"><rect codeLine="23" fill="#F1F1F1" height="26.2969" id="sensorMiflora" rx="2.5" ry="2.5" style="stroke:#181818;stroke-width:0.5;" width="127" x="500.5" y="248"/><text fill="#000000" font-family="sans-serif" font-size="14" lengthAdjust="spacing" textLength="121" x="503.5" y="265.9951">MiFlora Sensor(s)</text></g><!--MD5=[51acb274395edb6f88ee2cba909395a8]
class fritzBox--><g id="elem_fritzBox"><rect codeLine="27" fill="#F1F1F1" height="26.2969" id="fritzBox" rx="2.5" ry="2.5" style="stroke:#181818;stroke-width:0.5;" width="66" x="697" y="536"/><text fill="#000000" font-family="sans-serif" font-size="14" lengthAdjust="spacing" textLength="60" x="700" y="553.9951">FritzBox</text></g><!--MD5=[366497855f46827a890c54802e201935]
class fritzPlug--><g id="elem_fritzPlug"><rect codeLine="28" fill="#F1F1F1" height="26.2969" id="fritzPlug" rx="2.5" ry="2.5" style="stroke:#181818;stroke-width:0.5;" width="193" x="697.5" y="641"/><text fill="#000000" font-family="sans-serif" font-size="14" lengthAdjust="spacing" textLength="187" x="700.5" y="658.9951">Fritz DECT 200 smart plug</text></g><!--MD5=[54f4ac5e22271dd22d8e0b568fb748fc]
class sensorInkbird--><g id="elem_sensorInkbird"><rect codeLine="33" fill="#F1F1F1" height="26.2969" id="sensorInkbird" rx="2.5" ry="2.5" style="stroke:#181818;stroke-width:0.5;" width="127" x="261.5" y="60"/><text fill="#000000" font-family="sans-serif" font-size="14" lengthAdjust="spacing" textLength="121" x="264.5" y="77.9951">Inkbird Sensor(s)</text></g><!--MD5=[00e09975e8c15c689e98168c296211fd]
class jeelink--><g id="elem_jeelink"><rect codeLine="38" fill="#F1F1F1" height="26.2969" id="jeelink" rx="2.5" ry="2.5" style="stroke:#181818;stroke-width:0.5;" width="58" x="337" y="536"/><text fill="#000000" font-family="sans-serif" font-size="14" lengthAdjust="spacing" textLength="52" x="340" y="553.9951">JeeLink</text></g><!--MD5=[5ea93f34c9db0183587b445636901c88]
class nodered--><g id="elem_nodered"><rect codeLine="42" fill="#F1F1F1" height="26.2969" id="nodered" rx="2.5" ry="2.5" style="stroke:#181818;stroke-width:0.5;" width="66" x="154" y="536"/><text fill="#000000" font-family="sans-serif" font-size="14" lengthAdjust="spacing" textLength="60" x="157" y="553.9951">nodered</text></g><!--MD5=[7c0982c1395781ced04ca00a36c25145]
class grafana--><g id="elem_grafana"><rect codeLine="43" fill="#F1F1F1" height="26.2969" id="grafana" rx="2.5" ry="2.5" style="stroke:#181818;stroke-width:0.5;" width="60" x="51" y="786"/><text fill="#000000" font-family="sans-serif" font-size="14" lengthAdjust="spacing" textLength="54" x="54" y="803.9951">grafana</text></g><!--MD5=[ade9db4f15f152926b2e1fe10e395b07]
class influxdb--><g id="elem_influxdb"><rect codeLine="44" fill="#F1F1F1" height="26.2969" id="influxdb" rx="2.5" ry="2.5" style="stroke:#181818;stroke-width:0.5;" width="64" x="49" y="641"/><text fill="#000000" font-family="sans-serif" font-size="14" lengthAdjust="spacing" textLength="58" x="52" y="658.9951">influxdb</text></g><!--MD5=[c24edbdbbc0750b8dddfd0ea1ca3e084]
class mosquitto--><g id="elem_mosquitto"><rect codeLine="45" fill="#F1F1F1" height="26.2969" id="mosquitto" rx="2.5" ry="2.5" style="stroke:#181818;stroke-width:0.5;" width="80" x="114" y="393"/><text fill="#000000" font-family="sans-serif" font-size="14" lengthAdjust="spacing" textLength="74" x="117" y="410.9951">mosquitto</text></g><!--MD5=[8ec133213a10b86d0addb07a2405c8b5]
class scriptRaspiHealth--><g id="elem_scriptRaspiHealth"><rect codeLine="53" fill="#F1F1F1" height="26.2969" id="scriptRaspiHealth" rx="2.5" ry="2.5" style="stroke:#181818;stroke-width:0.5;" width="116" x="90" y="248"/><text fill="#000000" font-family="sans-serif" font-size="14" lengthAdjust="spacing" textLength="110" x="93" y="265.9951">raspi-health.py</text></g><!--MD5=[993ac2a20ab83a85fe0a7fbbc67b6b3b]
class scriptBlue--><g id="elem_scriptBlue"><rect codeLine="54" fill="#F1F1F1" height="26.2969" id="scriptBlue" rx="2.5" ry="2.5" style="stroke:#181818;stroke-width:0.5;" width="167" x="241.5" y="248"/><text fill="#000000" font-family="sans-serif" font-size="14" lengthAdjust="spacing" textLength="161" x="244.5" y="265.9951">bluedevices/gather.py</text></g><!--MD5=[a9a1a25f326d2d49bb1fe255cae817fc]
class discord--><g id="elem_discord"><rect codeLine="63" fill="#F1F1F1" height="26.2969" id="discord" rx="2.5" ry="2.5" style="stroke:#181818;stroke-width:0.5;" width="86" x="497" y="786"/><text fill="#000000" font-family="sans-serif" font-size="14" lengthAdjust="spacing" textLength="80" x="500" y="803.9951">DiscordBot</text></g><!--MD5=[386443b4612aa07dee343b3673396a25]
link fritzBox to fritzPlug--><g id="link_fritzBox_fritzPlug"><path codeLine="29" d="M740.359,566.672 C752.247,585.803 771.632,617.002 783.555,636.191 " fill="none" id="fritzBox-fritzPlug" style="stroke:#181818;stroke-width:1.0;"/><polygon fill="#181818" points="786.417,640.796,785.0615,631.0409,783.7768,636.5499,778.2677,635.2652,786.417,640.796" style="stroke:#181818;stroke-width:1.0;"/><polygon fill="#181818" points="737.593,562.22,738.9447,571.9757,740.2316,566.4671,745.7401,567.754,737.593,562.22" style="stroke:#181818;stroke-width:1.0;"/><text fill="#000000" font-family="sans-serif" font-size="13" lengthAdjust="spacing" textLength="96" x="768" y="607.0669">exchange data</text></g><!--MD5=[434968027c3affb00ae0d9920bf82087]
link mosquitto to nodered--><g id="link_mosquitto_nodered"><path codeLine="47" d="M156.814,419.022 C162.654,443.974 176.112,501.478 182.911,530.528 " fill="none" id="mosquitto-to-nodered" style="stroke:#181818;stroke-width:1.0;"/><polygon fill="#181818" points="184.099,535.607,185.9445,525.9326,182.9604,530.7384,178.1546,527.7543,184.099,535.607" style="stroke:#181818;stroke-width:1.0;"/><text fill="#000000" font-family="sans-serif" font-size="13" lengthAdjust="spacing" textLength="64" x="169" y="462.0669">push data</text></g><!--MD5=[c44c863058bcedc2dbf3bee2aafbf085]
link nodered to influxdb--><g id="link_nodered_influxdb"><path codeLine="48" d="M174.424,562.22 C155.219,580.882 118.578,616.485 97.338,637.124 " fill="none" id="nodered-to-influxdb" style="stroke:#181818;stroke-width:1.0;"/><polygon fill="#181818" points="93.559,640.796,102.8018,637.3945,97.1456,637.3123,97.2279,631.656,93.559,640.796" style="stroke:#181818;stroke-width:1.0;"/><text fill="#000000" font-family="sans-serif" font-size="13" lengthAdjust="spacing" textLength="137" x="142" y="607.0669">store timeseries data</text></g><!--MD5=[8ef4b411fbac159fefa1e848fedf73d6]
reverse link influxdb to grafana--><g id="link_influxdb_grafana"><path codeLine="49" d="M81,672.314 C81,701.655 81,760.432 81,785.8388 " fill="none" id="influxdb-backto-grafana" style="stroke:#181818;stroke-width:1.0;"/><polygon fill="#181818" points="81,667.192,77,676.192,81,672.192,85,676.192,81,667.192" style="stroke:#181818;stroke-width:1.0;"/><text fill="#000000" font-family="sans-serif" font-size="13" lengthAdjust="spacing" textLength="125" x="82" y="712.0669">get timeseries data</text></g><!--MD5=[d75f6a7cdd18e1b5b1ec4d9aca98a813]
link scriptRaspiHealth to scriptBlue--><!--MD5=[60c07c56880ca766bc0563fe4c9abd1b]
link scriptRaspiHealth to mosquitto--><g id="link_scriptRaspiHealth_mosquitto"><path codeLine="59" d="M147.645,274.327 C147.409,283.147 147.122,295.303 147,306 C146.914,313.555 146.678,315.451 147,323 C147.951,345.316 150.351,370.955 152.075,387.537 " fill="none" id="scriptRaspiHealth-to-mosquitto" style="stroke:#181818;stroke-width:1.0;"/><polygon fill="#181818" points="152.631,392.795,155.6627,383.4244,152.1053,387.8227,147.707,384.2654,152.631,392.795" style="stroke:#181818;stroke-width:1.0;"/><text fill="#000000" font-family="sans-serif" font-size="13" lengthAdjust="spacing" textLength="132" x="148" y="319.0669">send RPi health data</text></g><!--MD5=[5c4d37f106b8f7b91c6dc67a3b93e961]
reverse link jeelink to sensorLacrosse--><g id="link_jeelink_sensorLacrosse"><path codeLine="66" d="M400.194,549 C426.497,549 463.776,549 496.615,549 " fill="none" id="jeelink-backto-sensorLacrosse" style="stroke:#181818;stroke-width:1.0;"/><polygon fill="#181818" points="395.085,549,404.085,553,400.085,549,404.085,545,395.085,549" style="stroke:#181818;stroke-width:1.0;"/><text fill="#000000" font-family="sans-serif" font-size="13" lengthAdjust="spacing" textLength="64" x="414" y="542.0669">send data</text></g><!--MD5=[72dfd7a940ddb226af3452fd3c5c5751]
reverse link nodered to jeelink--><g id="link_nodered_jeelink"><path codeLine="67" d="M225.479,549 C258.856,549 306.448,549 336.781,549 " fill="none" id="nodered-backto-jeelink" style="stroke:#181818;stroke-width:1.0;"/><polygon fill="#181818" points="220.249,549,229.249,553,225.249,549,229.249,545,220.249,549" style="stroke:#181818;stroke-width:1.0;"/><text fill="#000000" font-family="sans-serif" font-size="13" lengthAdjust="spacing" textLength="80" x="238.5" y="542.0669">receive data</text></g><!--MD5=[230a7773f5ca88d8833f4e7550dfddac]
link scriptBlue to sensorMiflora--><g id="link_scriptBlue_sensorMiflora"><path codeLine="68" d="M408.591,261 C436.977,261 468.343,261 495.419,261 " fill="none" id="scriptBlue-to-sensorMiflora" style="stroke:#181818;stroke-width:1.0;"/><polygon fill="#181818" points="500.423,261,491.423,257,495.423,261,491.423,265,500.423,261" style="stroke:#181818;stroke-width:1.0;"/><text fill="#000000" font-family="sans-serif" font-size="13" lengthAdjust="spacing" textLength="55" x="427" y="254.0669">poll data</text></g><!--MD5=[aac851b76bdf37a1627fc1881af9657a]
reverse link sensorInkbird to scriptBlue--><g id="link_sensorInkbird_scriptBlue"><path codeLine="69" d="M325,91.342 C325,128.709 325,216.019 325,247.993 " fill="none" id="sensorInkbird-backto-scriptBlue" style="stroke:#181818;stroke-width:1.0;"/><polygon fill="#181818" points="325,86.204,321,95.204,325,91.204,329,95.204,325,86.204" style="stroke:#181818;stroke-width:1.0;"/><text fill="#000000" font-family="sans-serif" font-size="13" lengthAdjust="spacing" textLength="55" x="326" y="131.0669">poll data</text></g><!--MD5=[0b8db6065709ea6ce3b10d57185228d9]
link scriptBlue to mosquitto--><g id="link_scriptBlue_mosquitto"><path codeLine="70" d="M318.965,274.342 C312.082,287.522 299.84,308.47 285,323 C255.187,352.19 213.257,376.174 184.931,390.506 " fill="none" id="scriptBlue-to-mosquitto" style="stroke:#181818;stroke-width:1.0;"/><polygon fill="#181818" points="180.156,392.896,189.9945,392.4438,184.627,390.6576,186.4131,385.2902,180.156,392.896" style="stroke:#181818;stroke-width:1.0;"/><text fill="#000000" font-family="sans-serif" font-size="13" lengthAdjust="spacing" textLength="113" x="301" y="319.0669">send miflora data</text></g><!--MD5=[3c190e46bf5231713ee75fef79e9614b]
link nodered to discord--><g id="link_nodered_discord"><path codeLine="71" d="M220.406,561.926 C240.638,569.779 266.583,580.996 288,594 C384.558,652.629 484.594,744.704 523.314,781.7559 " fill="none" id="nodered-to-discord" style="stroke:#181818;stroke-width:1.0;"/><polygon fill="#181818" points="527.299,785.5827,523.5794,776.4632,523.6931,782.1189,518.0374,782.2326,527.299,785.5827" style="stroke:#181818;stroke-width:1.0;"/><text fill="#000000" font-family="sans-serif" font-size="13" lengthAdjust="spacing" textLength="113" x="421" y="658.5669">send notifications</text></g><!--MD5=[4f59a7e5815513155ff6d72097e742c7]
link nodered to fritzBox--><g id="link_nodered_fritzBox"><path codeLine="72" d="M204.46,535.739 C228.973,517.972 275.682,487.154 321,474 C392.707,453.186 588.67,443.898 657,474 C684.286,486.02 706.585,513.446 719.08,531.589 " fill="none" id="nodered-to-fritzBox" style="stroke:#181818;stroke-width:1.0;"/><polygon fill="#181818" points="722.042,535.987,720.3325,526.2876,719.2491,531.8398,713.697,530.7563,722.042,535.987" style="stroke:#181818;stroke-width:1.0;"/><text fill="#000000" font-family="sans-serif" font-size="13" lengthAdjust="spacing" textLength="132" x="395" y="462.0669">get plug data via API</text></g><!--MD5=[0c3001af92f3439b0724cdb6eed3175b]
@startuml
skinparam shadowing false

skinparam package {
  BackgroundColor white
  BorderColor black
  FontStyle italic bold

  BackgroundColor<<Environment>> PaleGreen
  BackgroundColor<<RaspberryPi>> LightSalmon
  BackgroundColor<<Hardware>> SeaShell
  BackgroundColor<<Docker>> LightSkyBlue
}

hide members
hide circle
hide stereotype

package "Environment" as E1 <<Environment>> {
  class "La Crosse Sensor(s)" as sensorLacrosse
}

package "Environment" as E2 <<Environment>> {
  class "MiFlora Sensor(s)" as sensorMiflora
}

package "Environment" as E3 <<Environment>> {
  class "FritzBox" as fritzBox
  class "Fritz DECT 200 smart plug" as fritzPlug
  fritzPlug <-up-> fritzBox: exchange data
}

package "Environment" as E4 <<Environment>> {
  class "Inkbird Sensor(s)" as sensorInkbird
}

package RaspberryPi <<RaspberryPi>> {
  package "Attached Hardware" <<Hardware>> {
    class "JeeLink" as jeelink
  }

  package Docker <<Docker>> {
    class nodered
    class grafana
    class influxdb
    class mosquitto

    mosquitto -down-> nodered: push data
    nodered -down-> influxdb: store timeseries data
    grafana -up-> influxdb: get timeseries data
  }

  package "Crontab Scripts" {
    class "raspi-health.py" as scriptRaspiHealth
    class "bluedevices/gather.py" as scriptBlue

    scriptRaspiHealth -right[hidden]-> scriptBlue
  }

  scriptRaspiHealth -down-> mosquitto: send RPi health data
}

package "External" as Ex {
  class "DiscordBot" as discord
}

sensorLacrosse -left-> jeelink: send data
jeelink -left-> nodered : receive data
scriptBlue-right-> sensorMiflora: poll data
scriptBlue-up-> sensorInkbird: poll data
scriptBlue -down-> mosquitto: send miflora data
nodered -down- -> discord: send notifications
nodered -right-> fritzBox: get plug data via API
@enduml

PlantUML version 1.2022.6beta5(Unknown compile time)
(GPL source distribution)
Java Runtime: Java(TM) SE Runtime Environment
JVM: Java HotSpot(TM) 64-Bit Server VM
Default Encoding: UTF-8
Language: en
Country: US
--></g></svg>
